# xmcd CD database file
#
# Track frame offsets:
#	180
#	12521
#	32240
#	51293
#	65603
#	85681
#	108302
#	121597
#	137326
#	154951
#	168920
#	183851
#
# Disc length: 2816 seconds
#
# Revision: 0
# Processed by: cddbd v1.5.2PL0 Copyright (c) Steve Scherf et al.
# Submitted via: CDex 1.51
#
DISCID=930afe0c
DTITLE=Clay Greenberg - Tales from the Highway
DYEAR=1995
DGENRE=Country
TTITLE0=Hanging Out in L.A.
TTITLE1=Tales from the Highway
TTITLE2=Running In Circles
TTITLE3=The Crazy One
TTITLE4=Tequila and Tears
TTITLE5=It's What I Did
TTITLE6=A Little Too Far
TTITLE7=The Shortcut
TTITLE8=You've Got to Love Me
TTITLE9=Nothing Left But You
TTITLE10=Stoppin Along the Way
TTITLE11=30 Days Rain
EXTD=YEAR: 1995
EXTT0=
EXTT1=
EXTT2=
EXTT3=
EXTT4=
EXTT5=
EXTT6=
EXTT7=
EXTT8=
EXTT9=
EXTT10=
EXTT11=
PLAYORDER=
